<?xml version="1.0" encoding="iso-8859-1"?>
<svg version="1.1" id="Layer_1" xmlns="http://www.w3.org/2000/svg" xmlns:xlink="http://www.w3.org/1999/xlink" x="0px" y="0px"
	 viewBox="0 0 427.958 427.958" style="enable-background:new 0 0 427.958 427.958;" xml:space="preserve">
<g>
	<path style="fill:#333333;" d="M318.298,299.782v113.46h-173.26v-113.46c0-47.84,38.79-86.63,86.63-86.63
		S318.298,251.942,318.298,299.782z"/>
	<path style="fill:#F7B239;" d="M384.808,154.962v258.28h-66.51v-113.46c0-47.84-38.79-86.63-86.63-86.63s-86.63,38.79-86.63,86.63
		v113.46h-66.51v-258.28l153.14-108.43L384.808,154.962z"/>
	<path style="fill:#F7B239;" d="M384.808,154.962l-153.14-108.43l-153.14,108.43l-20.62,14.6l-16.53-23.34l182.03-128.88
		c4.95-3.51,11.57-3.51,16.52,0l182.03,128.88l-16.53,23.34L384.808,154.962z"/>
	<path style="fill:#333333;" d="M427.872,145.211c-0.268-1.568-1.148-2.966-2.447-3.886L243.399,12.447
		c-7.017-4.975-16.445-4.976-23.458-0.002l-182.03,128.88c-1.299,0.92-2.18,2.318-2.447,3.886c-0.269,1.569,0.098,3.18,1.018,4.479
		l16.529,23.34c1.17,1.651,3.021,2.533,4.901,2.533c1.199,0,2.409-0.358,3.462-1.104l11.153-7.897v246.68c0,3.313,2.687,6,6,6h66.51
		h173.261h66.51c3.313,0,6-2.687,6-6v-246.68l11.153,7.897c2.703,1.913,6.447,1.275,8.363-1.429l16.53-23.34
		C427.775,148.391,428.141,146.78,427.872,145.211z M84.528,281.797h56.268c-1.15,5.82-1.759,11.833-1.759,17.985v15.834h-54.51
		L84.528,281.797L84.528,281.797z M84.528,327.616h54.51v33.808h-54.51C84.528,361.424,84.528,327.616,84.528,327.616z
		 M84.528,269.797v-33.819h80.049c-9.101,9.565-16.182,21.069-20.556,33.819H84.528z M84.528,223.978v-33.815h294.28v33.815h-93.966
		c-15.06-10.596-33.402-16.826-53.174-16.826s-38.115,6.23-53.175,16.826H84.528z M84.528,373.423h54.51v33.818h-54.51
		C84.528,407.241,84.528,373.423,84.528,373.423z M312.298,407.242H151.037v-107.46c0-44.459,36.171-80.63,80.631-80.63
		c44.459,0,80.63,36.17,80.63,80.63V407.242z M298.759,235.978h80.049v33.819h-59.493
		C314.941,257.047,307.86,245.544,298.759,235.978z M324.298,315.616v-15.834c0-6.152-0.609-12.165-1.759-17.985h56.268v33.819
		H324.298z M378.808,327.616v33.808h-54.51v-33.808L378.808,327.616L378.808,327.616z M324.298,407.242v-33.818h54.51v33.818
		H324.298z M378.808,178.163H84.528v-20.098l19.368-13.713h255.545l19.368,13.713v20.098H378.808z M294.729,98.533l47.763,33.819
		H120.843l47.764-33.819C168.607,98.533,294.729,98.533,294.729,98.533z M185.555,86.533l46.113-32.65l46.113,32.65H185.555z
		 M403.999,161.198L235.135,41.635c-1.038-0.735-2.253-1.103-3.467-1.103s-2.429,0.368-3.467,1.103L59.336,161.198l-9.594-13.547
		L226.878,22.236c2.864-2.032,6.715-2.031,9.583,0.002L413.594,147.65L403.999,161.198z"/>
	<rect x="165.668" y="125.212" style="fill:#F24125;" width="132" height="71"/>
	<path style="fill:#333333;" d="M297.668,202.212h-132c-3.313,0-6-2.687-6-6v-71c0-3.313,2.687-6,6-6h132c3.313,0,6,2.687,6,6v71
		C303.668,199.525,300.982,202.212,297.668,202.212z M171.668,190.212h120v-59h-120L171.668,190.212L171.668,190.212z"/>
	<g>
		<path style="fill:#FFFFFF;" d="M208.001,153.712c0-6.628-5.373-12-12-12s-12,5.373-12,12c0,2.615,0.846,5.028,2.267,7
			c-1.421,1.971-2.267,4.384-2.267,7c0,6.627,5.373,12,12,12s12-5.373,12-12c0-2.616-0.846-5.029-2.267-7
			C207.155,158.741,208.001,156.327,208.001,153.712z"/>
		<path style="fill:#FFFFFF;" d="M279.335,153.712c0-6.628-5.373-12-12-12s-12,5.373-12,12c0,2.615,0.846,5.028,2.267,7
			c-1.421,1.971-2.267,4.384-2.267,7c0,6.627,5.373,12,12,12s12-5.373,12-12c0-2.616-0.846-5.029-2.267-7
			C278.489,158.741,279.335,156.327,279.335,153.712z"/>
		<path style="fill:#333333;" d="M285.335,153.712c0-9.925-8.075-18-18.001-18c-9.925,0-18,8.075-18,18c0,0.336,0.031,0.667,0.05,1
			h-35.433c0.018-0.333,0.05-0.664,0.05-1c0-9.925-8.075-18-18-18s-18,8.075-18,18c0,2.432,0.484,4.8,1.419,7
			c-0.935,2.2-1.419,4.568-1.419,7c0,9.925,8.075,18,18,18s18-8.075,18-18c0-0.336-0.031-0.667-0.05-1h35.433
			c-0.018,0.333-0.05,0.664-0.05,1c0,9.925,8.075,18,18,18c9.926,0,18.001-8.075,18.001-18c0-2.432-0.484-4.8-1.42-7
			C284.851,158.511,285.335,156.144,285.335,153.712z M200.867,164.22c0.741,1.029,1.134,2.237,1.134,3.492c0,3.309-2.691,6-6,6
			s-6-2.691-6-6c0-1.255,0.393-2.462,1.134-3.492c1.51-2.095,1.511-4.921,0.001-7.016c-0.742-1.03-1.135-2.237-1.135-3.492
			c0-3.309,2.691-6,6-6s6,2.692,6,6c0,1.255-0.393,2.462-1.135,3.492C199.357,159.299,199.358,162.126,200.867,164.22z
			 M272.2,164.22c0.742,1.03,1.135,2.237,1.135,3.492c0,3.309-2.692,6-6.001,6s-6-2.691-6-6c0-1.254,0.393-2.462,1.135-3.493
			c1.509-2.094,1.509-4.918,0.001-7.013c-0.743-1.031-1.136-2.24-1.136-3.494c0-3.309,2.691-6,6-6s6.001,2.692,6.001,6
			c0,1.254-0.393,2.461-1.136,3.492C270.69,159.299,270.691,162.126,272.2,164.22z"/>
	</g>
	<polygon style="fill:#F24125;" points="14.566,390.575 88.103,390.575 96.668,413.242 6.001,413.242 	"/>
	<path style="fill:#333333;" d="M96.668,419.242H6.001c-1.971,0-3.815-0.968-4.936-2.588c-1.121-1.621-1.374-3.689-0.677-5.532
		l8.564-22.667c0.882-2.334,3.117-3.879,5.612-3.879h73.537c2.495,0,4.73,1.544,5.612,3.879l8.565,22.667
		c0.697,1.843,0.444,3.911-0.677,5.532C100.484,418.274,98.639,419.242,96.668,419.242z M14.682,407.242h73.305l-4.03-10.667H18.712
		L14.682,407.242z"/>
</g>
<g>
</g>
<g>
</g>
<g>
</g>
<g>
</g>
<g>
</g>
<g>
</g>
<g>
</g>
<g>
</g>
<g>
</g>
<g>
</g>
<g>
</g>
<g>
</g>
<g>
</g>
<g>
</g>
<g>
</g>
</svg>
